<?xml version="1.0" encoding="UTF-8" standalone="no"?>
<!-- Uploaded to: SVG Repo, www.svgrepo.com, Generator: SVG Repo Mixer Tools -->

<svg
   width="800px"
   height="800px"
   viewBox="0 0 24 24"
   fill="none"
   version="1.1"
   id="svg1"
   sodipodi:docname="hand-icon.svg"
   inkscape:version="1.3.2 (091e20ef0f, 2023-11-25)"
   xmlns:inkscape="http://www.inkscape.org/namespaces/inkscape"
   xmlns:sodipodi="http://sodipodi.sourceforge.net/DTD/sodipodi-0.dtd"
   xmlns="http://www.w3.org/2000/svg"
   xmlns:svg="http://www.w3.org/2000/svg">
  <defs
     id="defs1" />
  <sodipodi:namedview
     id="namedview1"
     pagecolor="#ffffff"
     bordercolor="#000000"
     borderopacity="0.25"
     inkscape:showpageshadow="2"
     inkscape:pageopacity="0.0"
     inkscape:pagecheckerboard="0"
     inkscape:deskcolor="#d1d1d1"
     inkscape:zoom="1.46625"
     inkscape:cx="400"
     inkscape:cy="400"
     inkscape:window-width="2560"
     inkscape:window-height="1371"
     inkscape:window-x="0"
     inkscape:window-y="32"
     inkscape:window-maximized="1"
     inkscape:current-layer="svg1" />
  <path
     fill-rule="evenodd"
     clip-rule="evenodd"
     d="m 11.282625,5.8250976 c -0.08624,0.1292527 -0.1537,0.3478007 -0.1537,0.6087848 V 7.547106 11.257851 C 11.128925,11.66774 10.796665,12 10.386776,12 9.9769024,12 9.6446275,11.66774 9.6446275,11.257851 V 7.547106 c 0,-0.2609842 -0.067491,-0.4795322 -0.153662,-0.6087849 C 9.4194595,6.8310657 9.3567405,6.8049569 9.273553,6.8049569 c -0.083187,0 -0.1459065,0.026109 -0.2174126,0.1333642 C 8.9699695,7.0675738 8.9024785,7.2861218 8.9024785,7.547106 V 12 14.226447 c 0,0.409889 -0.332275,0.742149 -0.742149,0.742149 -0.4098741,0 -0.742149,-0.33226 -0.742149,-0.742149 V 12 c 0,-0.261014 -0.067491,-0.479502 -0.153662,-0.608785 -0.071506,-0.10724 -0.1342251,-0.133364 -0.2174125,-0.133364 -0.083188,0 -0.1459065,0.02612 -0.2174126,0.133364 C 6.7435225,11.520498 6.6760315,11.738986 6.6760315,12 v 2.968596 c 0,0.76664 0.5199273,1.588347 1.5248935,2.258285 0.9891362,0.659474 2.329754,1.081386 3.67015,1.081386 2.721831,0 4.452894,-1.669094 4.452894,-3.339671 V 9.773553 c 0,-0.2609841 -0.06746,-0.4795322 -0.1537,-0.6087849 -0.07147,-0.1072553 -0.13418,-0.1333641 -0.217375,-0.1333641 -0.08319,0 -0.145906,0.026109 -0.217375,0.1333641 C 15.649281,9.2940208 15.58182,9.5125689 15.58182,9.773553 V 12 c 0,0.409889 -0.332261,0.742149 -0.742149,0.742149 -0.409889,0 -0.742149,-0.33226 -0.742149,-0.742149 V 9.773553 7.547106 c 0,-0.2609842 -0.06746,-0.4795322 -0.1537,-0.6087849 -0.07147,-0.1072554 -0.13418,-0.1333642 -0.217375,-0.1333642 -0.08319,0 -0.145906,0.026109 -0.217375,0.1333642 -0.08624,0.1292527 -0.153699,0.3478007 -0.153699,0.6087849 v 3.710745 C 13.355373,11.66774 13.023112,12 12.613224,12 12.203335,12 11.871075,11.66774 11.871075,11.257851 V 7.547106 6.4338824 c 0,-0.2609841 -0.06746,-0.4795321 -0.1537,-0.6087848 C 11.645906,5.7178422 11.583195,5.6917334 11.5,5.6917334 c -0.08319,0 -0.145906,0.026109 -0.217375,0.1333642 z m 1.883648,-0.4135848 c 0.170546,-0.058236 0.357567,-0.090854 0.560174,-0.090854 0.658954,0 1.152854,0.3449657 1.45246,0.7943221 0.284837,0.4273591 0.402913,0.9509601 0.402913,1.432125 v 0.038555 c 0.117111,-0.025085 0.240827,-0.038555 0.371074,-0.038555 0.658954,0 1.152854,0.3449657 1.45246,0.794322 0.284837,0.4273591 0.402913,0.9509601 0.402913,1.432125 v 5.1950431 c 0,2.782317 -2.721832,4.823969 -5.937192,4.823969 -1.628179,0 -3.2561793,-0.505775 -4.4934901,-1.330599 -1.2214808,-0.81436 -2.1858515,-2.033563 -2.1858515,-3.49337 V 12 c 0,-0.481135 0.1180463,-1.004796 0.4029498,-1.432125 0.2995685,-0.449356 0.7934612,-0.794322 1.4524228,-0.794322 0.13021,0 0.2539782,0.01347 0.3710745,0.038555 V 7.547106 c 0,-0.4811649 0.1180462,-1.0047659 0.4029498,-1.432125 0.2995684,-0.4493564 0.7934612,-0.7943221 1.4524227,-0.7943221 0.2026215,0 0.3896356,0.032618 0.5601889,0.090854 C 9.8906944,5.2686937 9.9615251,5.1308395 10.047577,5.0017575 10.347146,4.5524011 10.841046,4.2074354 11.5,4.2074354 c 0.658954,0 1.152854,0.3449657 1.45246,0.7943221 0.08601,0.129082 0.156816,0.2669362 0.213813,0.4097553 z"
     fill="#000000"
     id="path1"
     style="fill:#ffffff;fill-opacity:1;stroke-width:0.742149" />
</svg>
